<svg xmlns="http://www.w3.org/2000/svg" version="1.1" width="150" height="150" viewBox="0 0 150 150"><rect x="0" y="0" width="150" height="150" fill="#ffffff"/><g transform="scale(7.143)"><g transform="translate(0,0)"><path fill-rule="evenodd" d="M8 0L8 2L9 2L9 4L8 4L8 9L7 9L7 8L5 8L5 9L7 9L7 10L6 10L6 11L7 11L7 12L6 12L6 13L7 13L7 12L9 12L9 10L10 10L10 13L11 13L11 9L16 9L16 10L15 10L15 12L13 12L13 11L14 11L14 10L13 10L13 11L12 11L12 12L13 12L13 13L15 13L15 15L14 15L14 17L13 17L13 14L11 14L11 15L12 15L12 17L13 17L13 19L15 19L15 21L21 21L21 18L19 18L19 17L20 17L20 16L17 16L17 15L18 15L18 13L17 13L17 12L16 12L16 11L18 11L18 12L20 12L20 13L21 13L21 12L20 12L20 10L21 10L21 8L19 8L19 9L20 9L20 10L17 10L17 8L12 8L12 7L13 7L13 6L12 6L12 7L11 7L11 5L10 5L10 7L9 7L9 4L10 4L10 3L11 3L11 4L12 4L12 5L13 5L13 3L12 3L12 2L13 2L13 0ZM10 1L10 2L11 2L11 1ZM0 8L0 10L1 10L1 9L3 9L3 11L2 11L2 13L5 13L5 10L4 10L4 9L3 9L3 8ZM8 9L8 10L9 10L9 9ZM15 12L15 13L16 13L16 12ZM8 13L8 14L9 14L9 15L8 15L8 16L9 16L9 17L10 17L10 18L11 18L11 21L13 21L13 20L12 20L12 18L11 18L11 16L9 16L9 15L10 15L10 14L9 14L9 13ZM19 14L19 15L20 15L20 14ZM15 16L15 17L14 17L14 18L15 18L15 19L16 19L16 20L18 20L18 19L19 19L19 20L20 20L20 19L19 19L19 18L18 18L18 17L17 17L17 19L16 19L16 18L15 18L15 17L16 17L16 16ZM8 18L8 21L10 21L10 20L9 20L9 18ZM0 0L0 7L7 7L7 0ZM1 1L1 6L6 6L6 1ZM2 2L2 5L5 5L5 2ZM14 0L14 7L21 7L21 0ZM15 1L15 6L20 6L20 1ZM16 2L16 5L19 5L19 2ZM0 14L0 21L7 21L7 14ZM1 15L1 20L6 20L6 15ZM2 16L2 19L5 19L5 16Z" fill="#000000"/></g></g></svg>