<svg width="36" height="36" version="1.1" xmlns="http://www.w3.org/2000/svg">
	<g id="elements" fill="black" stroke="none">
		<rect x="0" y="0" width="3" height="3" />
		<rect x="6" y="0" width="3" height="3" />
		<rect x="12" y="0" width="3" height="3" />
		<rect x="18" y="0" width="3" height="3" />
		<rect x="24" y="0" width="3" height="3" />
		<rect x="30" y="0" width="3" height="3" />
		<rect x="0" y="3" width="3" height="3" />
		<rect x="3" y="3" width="3" height="3" />
		<rect x="12" y="3" width="3" height="3" />
		<rect x="18" y="3" width="3" height="3" />
		<rect x="21" y="3" width="3" height="3" />
		<rect x="24" y="3" width="3" height="3" />
		<rect x="27" y="3" width="3" height="3" />
		<rect x="33" y="3" width="3" height="3" />
		<rect x="0" y="6" width="3" height="3" />
		<rect x="3" y="6" width="3" height="3" />
		<rect x="9" y="6" width="3" height="3" />
		<rect x="12" y="6" width="3" height="3" />
		<rect x="21" y="6" width="3" height="3" />
		<rect x="27" y="6" width="3" height="3" />
		<rect x="0" y="9" width="3" height="3" />
		<rect x="3" y="9" width="3" height="3" />
		<rect x="6" y="9" width="3" height="3" />
		<rect x="9" y="9" width="3" height="3" />
		<rect x="12" y="9" width="3" height="3" />
		<rect x="15" y="9" width="3" height="3" />
		<rect x="18" y="9" width="3" height="3" />
		<rect x="27" y="9" width="3" height="3" />
		<rect x="30" y="9" width="3" height="3" />
		<rect x="33" y="9" width="3" height="3" />
		<rect x="0" y="12" width="3" height="3" />
		<rect x="3" y="12" width="3" height="3" />
		<rect x="9" y="12" width="3" height="3" />
		<rect x="15" y="12" width="3" height="3" />
		<rect x="21" y="12" width="3" height="3" />
		<rect x="27" y="12" width="3" height="3" />
		<rect x="0" y="15" width="3" height="3" />
		<rect x="9" y="15" width="3" height="3" />
		<rect x="12" y="15" width="3" height="3" />
		<rect x="15" y="15" width="3" height="3" />
		<rect x="18" y="15" width="3" height="3" />
		<rect x="27" y="15" width="3" height="3" />
		<rect x="33" y="15" width="3" height="3" />
		<rect x="0" y="18" width="3" height="3" />
		<rect x="3" y="18" width="3" height="3" />
		<rect x="12" y="18" width="3" height="3" />
		<rect x="15" y="18" width="3" height="3" />
		<rect x="30" y="18" width="3" height="3" />
		<rect x="0" y="21" width="3" height="3" />
		<rect x="9" y="21" width="3" height="3" />
		<rect x="12" y="21" width="3" height="3" />
		<rect x="15" y="21" width="3" height="3" />
		<rect x="21" y="21" width="3" height="3" />
		<rect x="27" y="21" width="3" height="3" />
		<rect x="33" y="21" width="3" height="3" />
		<rect x="0" y="24" width="3" height="3" />
		<rect x="3" y="24" width="3" height="3" />
		<rect x="6" y="24" width="3" height="3" />
		<rect x="9" y="24" width="3" height="3" />
		<rect x="12" y="24" width="3" height="3" />
		<rect x="0" y="27" width="3" height="3" />
		<rect x="3" y="27" width="3" height="3" />
		<rect x="6" y="27" width="3" height="3" />
		<rect x="18" y="27" width="3" height="3" />
		<rect x="21" y="27" width="3" height="3" />
		<rect x="27" y="27" width="3" height="3" />
		<rect x="33" y="27" width="3" height="3" />
		<rect x="0" y="30" width="3" height="3" />
		<rect x="12" y="30" width="3" height="3" />
		<rect x="18" y="30" width="3" height="3" />
		<rect x="21" y="30" width="3" height="3" />
		<rect x="24" y="30" width="3" height="3" />
		<rect x="30" y="30" width="3" height="3" />
		<rect x="0" y="33" width="3" height="3" />
		<rect x="3" y="33" width="3" height="3" />
		<rect x="6" y="33" width="3" height="3" />
		<rect x="9" y="33" width="3" height="3" />
		<rect x="12" y="33" width="3" height="3" />
		<rect x="15" y="33" width="3" height="3" />
		<rect x="18" y="33" width="3" height="3" />
		<rect x="21" y="33" width="3" height="3" />
		<rect x="24" y="33" width="3" height="3" />
		<rect x="27" y="33" width="3" height="3" />
		<rect x="30" y="33" width="3" height="3" />
		<rect x="33" y="33" width="3" height="3" />
	</g>
</svg>