<svg width="49" height="48" viewBox="0 0 49 48" fill="none" xmlns="http://www.w3.org/2000/svg">
<g clip-path="url(#clip0_23_29619)">
<rect x="0.876709" width="48" height="48" rx="24" fill="#28C76F" fill-opacity="0.12"/>
<path fill-rule="evenodd" clip-rule="evenodd" d="M27.3767 23H25.8767V18H29.8767C30.4767 18 30.8767 17.6 30.8767 17C30.8767 16.4 30.4767 16 29.8767 16H25.8767V13C25.8767 12.4 25.4767 12 24.8767 12C24.2767 12 23.8767 12.4 23.8767 13V16H22.3767C19.8767 16 17.8767 18 17.8767 20.5C17.8767 23 19.8767 25 22.3767 25H23.8767V30H18.8767C18.2767 30 17.8767 30.4 17.8767 31C17.8767 31.6 18.2767 32 18.8767 32H23.8767V35C23.8767 35.6 24.2767 36 24.8767 36C25.4767 36 25.8767 35.6 25.8767 35V32H27.3767C29.8767 32 31.8767 30 31.8767 27.5C31.8767 25 29.8767 23 27.3767 23ZM22.3767 23C20.9767 23 19.8767 21.9 19.8767 20.5C19.8767 19.1 20.9767 18 22.3767 18H23.8767V23H22.3767ZM25.8767 30H27.3767C28.7767 30 29.8767 28.9 29.8767 27.5C29.8767 26.1 28.7767 25 27.3767 25H25.8767V30Z" fill="black"/>
<mask id="mask0_23_29619" style="mask-type:alpha" maskUnits="userSpaceOnUse" x="17" y="12" width="15" height="24">
<path fill-rule="evenodd" clip-rule="evenodd" d="M27.3767 23H25.8767V18H29.8767C30.4767 18 30.8767 17.6 30.8767 17C30.8767 16.4 30.4767 16 29.8767 16H25.8767V13C25.8767 12.4 25.4767 12 24.8767 12C24.2767 12 23.8767 12.4 23.8767 13V16H22.3767C19.8767 16 17.8767 18 17.8767 20.5C17.8767 23 19.8767 25 22.3767 25H23.8767V30H18.8767C18.2767 30 17.8767 30.4 17.8767 31C17.8767 31.6 18.2767 32 18.8767 32H23.8767V35C23.8767 35.6 24.2767 36 24.8767 36C25.4767 36 25.8767 35.6 25.8767 35V32H27.3767C29.8767 32 31.8767 30 31.8767 27.5C31.8767 25 29.8767 23 27.3767 23ZM22.3767 23C20.9767 23 19.8767 21.9 19.8767 20.5C19.8767 19.1 20.9767 18 22.3767 18H23.8767V23H22.3767ZM25.8767 30H27.3767C28.7767 30 29.8767 28.9 29.8767 27.5C29.8767 26.1 28.7767 25 27.3767 25H25.8767V30Z" fill="white"/>
</mask>
<g mask="url(#mask0_23_29619)">
<rect x="12.8767" y="12" width="24" height="24" fill="#28C76F"/>
</g>
</g>
<defs>
<clipPath id="clip0_23_29619">
<rect width="48" height="48" fill="white" transform="translate(0.876709)"/>
</clipPath>
</defs>
</svg>
