<svg width="49" height="48" viewBox="0 0 49 48" fill="none" xmlns="http://www.w3.org/2000/svg">
<g clip-path="url(#clip0_23_29631)">
<rect x="0.698624" width="48" height="48" rx="24" fill="#00CFE8" fill-opacity="0.12"/>
<path fill-rule="evenodd" clip-rule="evenodd" d="M19.6986 19C19.6986 16.2 21.8986 14 24.6986 14C27.4986 14 29.6986 16.2 29.6986 19C29.6986 21.8 27.4986 24 24.6986 24C21.8986 24 19.6986 21.8 19.6986 19ZM33.6986 31V33C33.6986 33.6 33.2986 34 32.6986 34C32.0986 34 31.6986 33.6 31.6986 33V31C31.6986 29.3 30.3986 28 28.6986 28H20.6986C18.9986 28 17.6986 29.3 17.6986 31V33C17.6986 33.6 17.2986 34 16.6986 34C16.0986 34 15.6986 33.6 15.6986 33V31C15.6986 28.2 17.8986 26 20.6986 26H28.6986C31.4986 26 33.6986 28.2 33.6986 31ZM24.6986 22C22.9986 22 21.6986 20.7 21.6986 19C21.6986 17.3 22.9986 16 24.6986 16C26.3986 16 27.6986 17.3 27.6986 19C27.6986 20.7 26.3986 22 24.6986 22Z" fill="black"/>
<mask id="mask0_23_29631" style="mask-type:alpha" maskUnits="userSpaceOnUse" x="15" y="14" width="19" height="20">
<path fill-rule="evenodd" clip-rule="evenodd" d="M19.6986 19C19.6986 16.2 21.8986 14 24.6986 14C27.4986 14 29.6986 16.2 29.6986 19C29.6986 21.8 27.4986 24 24.6986 24C21.8986 24 19.6986 21.8 19.6986 19ZM33.6986 31V33C33.6986 33.6 33.2986 34 32.6986 34C32.0986 34 31.6986 33.6 31.6986 33V31C31.6986 29.3 30.3986 28 28.6986 28H20.6986C18.9986 28 17.6986 29.3 17.6986 31V33C17.6986 33.6 17.2986 34 16.6986 34C16.0986 34 15.6986 33.6 15.6986 33V31C15.6986 28.2 17.8986 26 20.6986 26H28.6986C31.4986 26 33.6986 28.2 33.6986 31ZM24.6986 22C22.9986 22 21.6986 20.7 21.6986 19C21.6986 17.3 22.9986 16 24.6986 16C26.3986 16 27.6986 17.3 27.6986 19C27.6986 20.7 26.3986 22 24.6986 22Z" fill="white"/>
</mask>
<g mask="url(#mask0_23_29631)">
<rect x="12.6986" y="12" width="24" height="24" fill="#00CFE8"/>
</g>
</g>
<defs>
<clipPath id="clip0_23_29631">
<rect width="48" height="48" fill="white" transform="translate(0.698624)"/>
</clipPath>
</defs>
</svg>
