<svg width="49" height="48" viewBox="0 0 49 48" fill="none" xmlns="http://www.w3.org/2000/svg">
<g clip-path="url(#clip0_23_29637)">
<rect x="0.424658" width="48" height="48" rx="24" fill="#7367F0" fill-opacity="0.12"/>
<path d="M36.4247 18V24C36.4247 24.6 36.0247 25 35.4247 25C34.8247 25 34.4247 24.6 34.4247 24V20.4L26.6247 28.2C26.2247 28.6 25.6247 28.6 25.2247 28.2L20.9247 23.9L14.1247 30.7C13.9247 30.9 13.7247 31 13.4247 31C13.1247 31 12.9247 30.9 12.7247 30.7C12.3247 30.3 12.3247 29.7 12.7247 29.3L20.2247 21.8C20.6247 21.4 21.2247 21.4 21.6247 21.8L25.9247 26.1L33.0247 19H29.4247C28.8247 19 28.4247 18.6 28.4247 18C28.4247 17.4 28.8247 17 29.4247 17H35.4247C35.5247 17 35.7247 17 35.8247 17.1C36.0247 17.2 36.2247 17.4 36.3247 17.6C36.4247 17.7 36.4247 17.9 36.4247 18Z" fill="black"/>
<mask id="mask0_23_29637" style="mask-type:alpha" maskUnits="userSpaceOnUse" x="12" y="17" width="25" height="14">
<path d="M36.4247 18V24C36.4247 24.6 36.0247 25 35.4247 25C34.8247 25 34.4247 24.6 34.4247 24V20.4L26.6247 28.2C26.2247 28.6 25.6247 28.6 25.2247 28.2L20.9247 23.9L14.1247 30.7C13.9247 30.9 13.7247 31 13.4247 31C13.1247 31 12.9247 30.9 12.7247 30.7C12.3247 30.3 12.3247 29.7 12.7247 29.3L20.2247 21.8C20.6247 21.4 21.2247 21.4 21.6247 21.8L25.9247 26.1L33.0247 19H29.4247C28.8247 19 28.4247 18.6 28.4247 18C28.4247 17.4 28.8247 17 29.4247 17H35.4247C35.5247 17 35.7247 17 35.8247 17.1C36.0247 17.2 36.2247 17.4 36.3247 17.6C36.4247 17.7 36.4247 17.9 36.4247 18Z" fill="white"/>
</mask>
<g mask="url(#mask0_23_29637)">
<rect x="12.4247" y="12" width="24" height="24" fill="#7367F0"/>
</g>
</g>
<defs>
<clipPath id="clip0_23_29637">
<rect width="48" height="48" fill="white" transform="translate(0.424658)"/>
</clipPath>
</defs>
</svg>
