<svg width="43" height="42" viewBox="0 0 43 42" fill="none" xmlns="http://www.w3.org/2000/svg">
<g clip-path="url(#clip0_23_31712)">
<rect x="0.142853" width="42" height="42" rx="5" fill="#7367F0" fill-opacity="0.12"/>
<path fill-rule="evenodd" clip-rule="evenodd" d="M27.8095 12.667H14.4762C13.0595 12.667 11.9762 13.7503 11.9762 15.167V20.167C11.9762 25.2503 16.0595 29.3337 21.1429 29.3337C26.2262 29.3337 30.3095 25.2503 30.3095 20.167V15.167C30.3095 13.7503 29.2262 12.667 27.8095 12.667ZM28.6429 20.167C28.6429 24.3337 25.3095 27.667 21.1429 27.667C16.9762 27.667 13.6429 24.3337 13.6429 20.167V15.167C13.6429 14.667 13.9762 14.3337 14.4762 14.3337H27.8095C28.3095 14.3337 28.6429 14.667 28.6429 15.167V20.167ZM25.0595 19.917C25.3929 19.5837 25.3929 19.0837 25.0595 18.7503C24.7262 18.417 24.2262 18.417 23.8929 18.7503L21.1429 21.5003L18.3929 18.7503C18.0595 18.417 17.5595 18.417 17.2262 18.7503C16.8929 19.0837 16.8929 19.5837 17.2262 19.917L20.5595 23.2503C20.7262 23.417 20.8929 23.5003 21.1429 23.5003C21.3929 23.5003 21.5595 23.417 21.7262 23.2503L25.0595 19.917Z" fill="black"/>
<mask id="mask0_23_31712" style="mask-type:alpha" maskUnits="userSpaceOnUse" x="11" y="12" width="20" height="18">
<path fill-rule="evenodd" clip-rule="evenodd" d="M27.8095 12.667H14.4762C13.0595 12.667 11.9762 13.7503 11.9762 15.167V20.167C11.9762 25.2503 16.0595 29.3337 21.1429 29.3337C26.2262 29.3337 30.3095 25.2503 30.3095 20.167V15.167C30.3095 13.7503 29.2262 12.667 27.8095 12.667ZM28.6429 20.167C28.6429 24.3337 25.3095 27.667 21.1429 27.667C16.9762 27.667 13.6429 24.3337 13.6429 20.167V15.167C13.6429 14.667 13.9762 14.3337 14.4762 14.3337H27.8095C28.3095 14.3337 28.6429 14.667 28.6429 15.167V20.167ZM25.0595 19.917C25.3929 19.5837 25.3929 19.0837 25.0595 18.7503C24.7262 18.417 24.2262 18.417 23.8929 18.7503L21.1429 21.5003L18.3929 18.7503C18.0595 18.417 17.5595 18.417 17.2262 18.7503C16.8929 19.0837 16.8929 19.5837 17.2262 19.917L20.5595 23.2503C20.7262 23.417 20.8929 23.5003 21.1429 23.5003C21.3929 23.5003 21.5595 23.417 21.7262 23.2503L25.0595 19.917Z" fill="white"/>
</mask>
<g mask="url(#mask0_23_31712)">
<rect x="11.1429" y="11" width="20" height="20" fill="#7367F0"/>
</g>
</g>
<defs>
<clipPath id="clip0_23_31712">
<rect width="42" height="42" fill="white" transform="translate(0.142853)"/>
</clipPath>
</defs>
</svg>
