<svg width="49" height="48" viewBox="0 0 49 48" fill="none" xmlns="http://www.w3.org/2000/svg">
<g clip-path="url(#clip0_23_29625)">
<rect x="0.301392" width="48" height="48" rx="24" fill="#EA5455" fill-opacity="0.12"/>
<path fill-rule="evenodd" clip-rule="evenodd" d="M25.6014 12.5998L33.6014 16.5998C34.7014 17.0998 35.3014 18.0998 35.3014 19.1998V28.6998C35.3014 29.8998 34.6014 30.8998 33.6014 31.3998L25.6014 35.3998C25.2014 35.5998 24.8014 35.6998 24.3014 35.6998C23.9014 35.6998 23.4014 35.5998 23.0014 35.3998L15.0014 31.3998C13.9014 30.8998 13.3014 29.7998 13.3014 28.6998V19.1998C13.3014 18.0998 13.9014 17.0998 14.9014 16.5998L22.9014 12.5998C23.8014 12.1998 24.8014 12.1998 25.6014 12.5998ZM24.3014 14.1998C24.2014 14.1998 24.0014 14.1998 23.9014 14.2998L16.5014 17.9998L24.3014 21.8998L32.1014 17.9998L24.7014 14.2998C24.6014 14.1998 24.5014 14.1998 24.3014 14.1998ZM15.8014 29.6998C15.5014 29.4998 15.3014 29.0998 15.3014 28.7998V19.5998L23.3014 23.5998V33.3998L15.8014 29.6998ZM25.3014 33.3998L32.7014 29.6998C33.1014 29.4998 33.3014 29.1998 33.3014 28.7998V19.5998L25.3014 23.5998V33.3998Z" fill="black"/>
<mask id="mask0_23_29625" style="mask-type:alpha" maskUnits="userSpaceOnUse" x="13" y="12" width="23" height="24">
<path fill-rule="evenodd" clip-rule="evenodd" d="M25.6014 12.5998L33.6014 16.5998C34.7014 17.0998 35.3014 18.0998 35.3014 19.1998V28.6998C35.3014 29.8998 34.6014 30.8998 33.6014 31.3998L25.6014 35.3998C25.2014 35.5998 24.8014 35.6998 24.3014 35.6998C23.9014 35.6998 23.4014 35.5998 23.0014 35.3998L15.0014 31.3998C13.9014 30.8998 13.3014 29.7998 13.3014 28.6998V19.1998C13.3014 18.0998 13.9014 17.0998 14.9014 16.5998L22.9014 12.5998C23.8014 12.1998 24.8014 12.1998 25.6014 12.5998ZM24.3014 14.1998C24.2014 14.1998 24.0014 14.1998 23.9014 14.2998L16.5014 17.9998L24.3014 21.8998L32.1014 17.9998L24.7014 14.2998C24.6014 14.1998 24.5014 14.1998 24.3014 14.1998ZM15.8014 29.6998C15.5014 29.4998 15.3014 29.0998 15.3014 28.7998V19.5998L23.3014 23.5998V33.3998L15.8014 29.6998ZM25.3014 33.3998L32.7014 29.6998C33.1014 29.4998 33.3014 29.1998 33.3014 28.7998V19.5998L25.3014 23.5998V33.3998Z" fill="white"/>
</mask>
<g mask="url(#mask0_23_29625)">
<rect x="12.3014" y="12" width="24" height="24" fill="#EA5455"/>
</g>
</g>
<defs>
<clipPath id="clip0_23_29625">
<rect width="48" height="48" fill="white" transform="translate(0.301392)"/>
</clipPath>
</defs>
</svg>
